# xmcd CD database file
#
# Track frame offsets:
#	150
#	13131
#	27492
#	41388
#	55080
#	71183
#	85471
#	104138
#	117279
#	131659
#	145185
#	158948
#	171302
#	177714
#	191000
#	203210
#	216127
#	227584
#	240715
#	251082
#	265435
#	276865
#
# Disc length: 3862 seconds
#
# Revision: 1
# Processed by: cddbd v1.5.1PL2 Copyright (c) Steve Scherf et al.
# Submitted via: CDex 1.50beta10
#
DISCID=5a0f1416
DTITLE=Leadbelly - Legendary Leadbelly
DYEAR=1999
DGENRE=Blues
TTITLE0=Good Morning Blues
TTITLE1=Death Letter Blues
TTITLE2=Midnight Special
TTITLE3=You Don't Know My Mind
TTITLE4=Leavin' Blues
TTITLE5=Alberta
TTITLE6=CC Rider
TTITLE7=Can't You Line 'Em
TTITLE8=I'm On My Last Go Round
TTITLE9=Roberta
TTITLE10=Alabama Bound
TTITLE11=Ella Speed
TTITLE12=There's A Man Going Round Taking Names
TTITLE13=Backwater Blues
TTITLE14=Western Plain
TTITLE15=On A Christmas Day
TTITLE16=In The Evening When The Sun Goes Down
TTITLE17=Tell Me Baby
TTITLE18=Blue Tail Fly
TTITLE19=Easy Rider
TTITLE20=Rock Island Line
TTITLE21=Goodnight Irene
EXTD=YEAR: 1999
EXTT0=
EXTT1=
EXTT2=
EXTT3=
EXTT4=
EXTT5=
EXTT6=
EXTT7=
EXTT8=
EXTT9=
EXTT10=
EXTT11=
EXTT12=
EXTT13=
EXTT14=
EXTT15=
EXTT16=
EXTT17=
EXTT18=
EXTT19=
EXTT20=
EXTT21=
PLAYORDER=
